<?xml version="1.0" encoding="utf-8"?>
<!-- Generator: Adobe Illustrator 18.0.0, SVG Export Plug-In . SVG Version: 6.00 Build 0)  -->
<!DOCTYPE svg PUBLIC "-//W3C//DTD SVG 1.1//EN" "http://www.w3.org/Graphics/SVG/1.1/DTD/svg11.dtd">
<svg version="1.1" id="Laag_1" xmlns="http://www.w3.org/2000/svg" xmlns:xlink="http://www.w3.org/1999/xlink" x="0px" y="0px"
	 viewBox="0 0 256 256" enable-background="new 0 0 256 256" xml:space="preserve">
<g id="Definitief_1_">
	<g id="Onderlaag_voor_slagschaduw_1_">
		<g>
			<path fill="#FFFFFF" d="M47.3,137.4L47.3,137.4 M47.3,137.4c-5.6,23.8-15,32.1-21,32.1c-3.6,0-6-3-5.6-7.6
				C21.7,149.9,47.3,137.4,47.3,137.4 M47.3,125.4c-0.2,0-0.3,0-0.5,0c-1.8,0.1-3.6,0.6-5.1,1.4c-1.4,0.7-7.8,4-14.3,8.6
				C15.6,143.8,9.5,152.2,8.7,161c-0.5,5.8,1.2,11.2,4.8,15c3.3,3.6,7.9,5.6,12.8,5.6c4.2,0,12.4-1.6,20.2-12
				c5.2-7,9.4-16.8,12.3-29.1c0.3-1,0.4-2.1,0.4-3.1c0-6.6-5.3-11.9-11.9-12C47.4,125.4,47.3,125.4,47.3,125.4L47.3,125.4z"/>
			<path fill="#009FE3" d="M26.3,172.6c-2.4,0-4.6-0.9-6.2-2.7c-1.8-2-2.7-4.9-2.4-8.2c1.1-13.3,25.5-25.7,28.2-27
				c0.4-0.2,0.9-0.3,1.3-0.3c0.7,0,1.3,0.2,1.9,0.7c0.9,0.7,1.3,1.9,1.1,3C44.2,163.5,33.9,172.6,26.3,172.6
				C26.3,172.6,26.3,172.6,26.3,172.6z"/>
			<path d="M47.3,137.4c-5.6,23.8-15,32.1-21,32.1c-3.6,0-6-3-5.6-7.6C21.7,149.9,47.3,137.4,47.3,137.4 M47.3,131.4
				c-0.9,0-1.8,0.2-2.6,0.6c-0.3,0.1-6.9,3.4-13.8,8.3c-10.3,7.3-15.6,14.3-16.2,21.2c-0.3,4.1,0.8,7.8,3.2,10.5
				c2.1,2.3,5.1,3.6,8.4,3.6c4.2,0,18.7-2.7,26.8-36.8c0.5-2.3-0.3-4.6-2.1-6.1C50,131.8,48.6,131.4,47.3,131.4L47.3,131.4z"/>
		</g>
		<g>
			<path fill="#FFFFFF" d="M207.4,137.6c32.2,15.5,30.5,31.7,21.1,31.7c-0.9,0-1.9-0.1-2.9-0.5C214.1,165.3,207.4,137.6,207.4,137.6
				 M207.4,125.6c-2.7,0-5.4,0.9-7.6,2.7c-3.6,2.9-5.2,7.7-4.1,12.2c0.1,0.3,2,8,5.4,16.1c5.7,13.4,12.5,21.1,21,23.7
				c2.1,0.7,4.3,1,6.4,1c8.6,0,15.6-5.5,17.5-13.6c0.9-4.1,1.3-12.5-7.3-22.4c-5.8-6.7-14.6-12.9-26.1-18.5
				C210.9,126,209.2,125.6,207.4,125.6L207.4,125.6z"/>
			<path fill="#009FE3" d="M228.5,172.3c-1.2,0-2.5-0.2-3.8-0.6c-12.8-4-19.6-30.4-20.3-33.4c-0.3-1.1,0.1-2.3,1-3.1
				c0.5-0.4,1.2-0.7,1.9-0.7c0.4,0,0.9,0.1,1.3,0.3c23.6,11.4,30.2,23.4,28.5,30.8C236.3,169.7,232.9,172.3,228.5,172.3L228.5,172.3
				z"/>
			<path d="M207.4,137.6c32.2,15.5,30.5,31.7,21.1,31.7c-0.9,0-1.9-0.1-2.9-0.5C214.1,165.3,207.4,137.6,207.4,137.6 M207.4,131.6
				c-1.4,0-2.7,0.5-3.8,1.3c-1.8,1.5-2.6,3.8-2.1,6.1c0.1,0.3,1.8,7.5,5.1,15.2c4.9,11.6,10.6,18.3,17.2,20.4
				c1.6,0.5,3.1,0.7,4.6,0.7c5.8,0,10.3-3.5,11.6-8.9c0.9-4.2,1.6-18.9-30.1-34.2C209.2,131.8,208.3,131.6,207.4,131.6L207.4,131.6z
				"/>
		</g>
		<g>
			<path fill="#FFFFFF" d="M175.4,28.4c0,0,1.1,10.5-3.1,12.4c16.6,0,15.8,19.6,15.8,19.6V186c0,0,0,5.6,0,12h0v17.5
				c-0.2,8.9-5.1,12.9-12,12.9c0,0,0,0,0,0c0,0,0,0,0,0c-6,0-11.5-3.7-12-12.9v-4.2c-0.1-0.8-0.2-1.6-0.3-2.5H90.3
				c0,0.1,0,0.2,0,0.3v6.4c-0.2,8.9-5.1,12.9-12,12.9c0,0,0,0,0,0c0,0,0,0,0,0c-6,0-11.5-3.7-12-12.9v-17.8h0V60.3
				c0,0-1.2-19.2,16.8-19.6c22.9,0,63.5,0,63.5,0s13.5-4.9,18.8-12.4c0,0,1.8,7.1-3.8,12.4C161.6,40.8,172,35.8,175.4,28.4
				 M175.4,16.3c-1.8,0-3.5,0.4-5,1.1c-0.9-0.4-1.9-0.7-2.8-0.9c-0.7-0.1-1.4-0.2-2.2-0.2c-3.9,0-7.6,1.9-9.9,5.1
				c-1.7,2.4-7.1,5.5-11.2,7.3H83.1c-0.1,0-0.2,0-0.3,0c-10.6,0.2-17.1,4.9-20.7,8.8c-7.9,8.6-8,20.2-7.9,23.1V197
				c0,0.2,0,0.4,0,0.7v17.8c0,0.2,0,0.4,0,0.6c0.5,9.3,4.4,14.9,7.6,18c4.3,4.1,10.1,6.3,16.4,6.3c12.4,0,21.3-7.7,23.5-19.6h50.9
				c1.3,6.5,4.4,10.7,7,13.3c4.3,4.1,10.1,6.3,16.4,6.3c14,0,23.7-9.9,24.1-24.6c0-0.1,0-0.2,0-0.3V198c0-0.1,0-0.3,0-0.4V186V60.6
				c0.1-3.1-0.1-15.3-8.5-24c-1.2-1.3-2.6-2.4-4.1-3.4c0.1-2.4,0-4.5-0.2-6c-0.6-5.4-4.7-9.8-10-10.6
				C176.7,16.4,176.1,16.3,175.4,16.3L175.4,16.3z"/>
			<path fill="#009FE3" d="M176.1,228.4v3c-6.9,0-14.4-4.1-15-15.7c0,0,0-3.8,0-3.8H93.3v3.7c-0.2,10-5.9,15.9-15,15.9
				c-6.9,0-14.4-4.1-15-15.7c0,0,0-0.1,0-0.1v-17.8c0-0.1,0-0.2,0-0.3v-137C63.2,59.2,63,50,68.8,43.6c3.5-3.8,8.2-5.7,14.2-5.9
				l63,0c2.3-0.9,12.8-5.2,16.9-11.1c0.6-0.8,1.5-1.3,2.5-1.3c0.2,0,0.4,0,0.5,0c1.2,0.2,2.1,1.1,2.4,2.2c0,0.2,0.5,2.1,0.3,4.7
				c1.7-1.5,3.2-3.3,4.1-5.2c0.5-1.1,1.6-1.8,2.7-1.8c0.2,0,0.3,0,0.5,0c1.3,0.2,2.4,1.3,2.5,2.7c0.2,1.9,0.5,6.6-0.8,10.4
				c2.9,0.8,5.4,2.3,7.5,4.4c6.1,6.4,6,16.5,6,17.6v137.4c0,0.1,0,0.1,0,0.2v17.5c-0.2,10-5.9,15.9-15,15.9
				C176.1,231.4,176.1,228.4,176.1,228.4z"/>
			<path d="M175.4,28.4c0,0,1.1,10.5-3.1,12.4c16.6,0,15.8,19.6,15.8,19.6V186c0,0,0,5.6,0,12h0v17.5c-0.2,8.9-5.1,12.9-12,12.9
				c0,0,0,0,0,0c0,0,0,0,0,0c-6,0-11.5-3.7-12-12.9v-4.2c-0.1-0.8-0.2-1.6-0.3-2.5H90.3c0,0.1,0,0.2,0,0.3v6.4
				c-0.2,8.9-5.1,12.9-12,12.9c0,0,0,0,0,0c0,0,0,0,0,0c-6,0-11.5-3.7-12-12.9v-17.8h0V60.3c0,0-1.2-19.2,16.8-19.6
				c22.9,0,63.5,0,63.5,0s13.5-4.9,18.8-12.4c0,0,1.8,7.1-3.8,12.4C161.6,40.8,172,35.8,175.4,28.4 M175.4,22.3c-2,0-3.9,1-5,2.7
				c-0.9-1.3-2.3-2.3-3.9-2.6c-0.4-0.1-0.7-0.1-1.1-0.1c-1.9,0-3.8,0.9-4.9,2.6c-2.8,4-10.3,8-15,9.8H83.1c0,0-0.1,0-0.1,0
				c-6.7,0.1-12.4,2.5-16.4,6.8c-6.6,7.1-6.4,17-6.4,18.9v136.8c0,0.2,0,0.3,0,0.5v17.8c0,0.1,0,0.2,0,0.3
				c0.7,13.7,10.1,18.6,18,18.6c10.9,0,17.8-7.2,18-18.7c0,0,0-0.1,0-0.1v-0.7h61.8v0.7c0,0.1,0,0.2,0,0.3
				c0.7,13.7,10.1,18.6,18,18.6c10.9,0,17.8-7.2,18-18.7c0,0,0-0.1,0-0.1V198c0-0.1,0-0.2,0-0.3V186V60.5c0.1-1.8,0.1-12.5-6.8-19.7
				c-1.7-1.8-3.8-3.2-6.1-4.2c0.6-3.4,0.4-6.7,0.2-8.8c-0.3-2.7-2.3-4.9-5-5.3C176.1,22.4,175.8,22.3,175.4,22.3L175.4,22.3z"/>
		</g>
		<path fill="#FFFFFF" d="M114.3,107.4c0,7.7-6.2,13.9-13.9,13.9l0,0c-7.7,0-13.9-6.2-13.9-13.9l0,0c0-7.7,6.2-13.9,13.9-13.9l0,0
			C108,93.5,114.3,99.7,114.3,107.4L114.3,107.4z"/>
		<circle cx="100.4" cy="107.4" r="6.4"/>
		<path fill="#FFFFFF" d="M167.9,107.4c0,7.7-6.2,13.9-13.9,13.9l0,0c-7.7,0-13.9-6.2-13.9-13.9l0,0c0-7.7,6.2-13.9,13.9-13.9l0,0
			C161.7,93.5,167.9,99.7,167.9,107.4L167.9,107.4z"/>
		<circle cx="154" cy="107.4" r="6.4"/>
		<path fill="none" stroke="#000000" stroke-width="4.5123" stroke-linecap="round" d="M151,143.3c-19.6,19.6-47.6,4.5-47.6,4.5"/>
		
			<ellipse transform="matrix(-0.9059 -0.4235 0.4235 -0.9059 142.6244 243.1564)" fill="#FFFFFF" cx="98.3" cy="105.7" rx="1.6" ry="2.5"/>
		
			<ellipse transform="matrix(-0.9059 -0.4235 0.4235 -0.9059 244.8985 265.8832)" fill="#FFFFFF" cx="152" cy="105.7" rx="1.6" ry="2.5"/>
		<path fill="#83D0F5" d="M98.4,47c-13.5-0.2-25.6-0.2-25.6,23.3C79.4,55.7,87.4,50,98.4,47z"/>
		<path fill="#83D0F5" d="M127.2,170.4c-18.3,0-33.2,14.4-33.2,32.3h66.4C160.4,184.9,145.5,170.4,127.2,170.4z"/>
	</g>
	<g id="Bovenlaag_1_">
		<g>
			<path fill="#FFFFFF" d="M47.3,137.4L47.3,137.4 M47.3,137.4c-5.6,23.8-15,32.1-21,32.1c-3.6,0-6-3-5.6-7.6
				C21.7,149.9,47.3,137.4,47.3,137.4 M47.3,125.4c-0.2,0-0.3,0-0.5,0c-1.8,0.1-3.6,0.6-5.1,1.4c-1.4,0.7-7.8,4-14.3,8.6
				C15.6,143.8,9.5,152.2,8.7,161c-0.5,5.8,1.2,11.2,4.8,15c3.3,3.6,7.9,5.6,12.8,5.6c4.2,0,12.4-1.6,20.2-12
				c5.2-7,9.4-16.8,12.3-29.1c0.3-1,0.4-2.1,0.4-3.1c0-6.6-5.3-11.9-11.9-12C47.4,125.4,47.3,125.4,47.3,125.4L47.3,125.4z"/>
			<path fill="#009FE3" d="M26.3,172.6c-2.4,0-4.6-0.9-6.2-2.7c-1.8-2-2.7-4.9-2.4-8.2c1.1-13.3,25.5-25.7,28.2-27
				c0.4-0.2,0.9-0.3,1.3-0.3c0.7,0,1.3,0.2,1.9,0.7c0.9,0.7,1.3,1.9,1.1,3C44.2,163.5,33.9,172.6,26.3,172.6
				C26.3,172.6,26.3,172.6,26.3,172.6z"/>
			<path d="M47.3,137.4c-5.6,23.8-15,32.1-21,32.1c-3.6,0-6-3-5.6-7.6C21.7,149.9,47.3,137.4,47.3,137.4 M47.3,131.4
				c-0.9,0-1.8,0.2-2.6,0.6c-0.3,0.1-6.9,3.4-13.8,8.3c-10.3,7.3-15.6,14.3-16.2,21.2c-0.3,4.1,0.8,7.8,3.2,10.5
				c2.1,2.3,5.1,3.6,8.4,3.6c4.2,0,18.7-2.7,26.8-36.8c0.5-2.3-0.3-4.6-2.1-6.1C50,131.8,48.6,131.4,47.3,131.4L47.3,131.4z"/>
		</g>
		<g>
			<path fill="#FFFFFF" d="M207.4,137.6c32.2,15.5,30.5,31.7,21.1,31.7c-0.9,0-1.9-0.1-2.9-0.5C214.1,165.3,207.4,137.6,207.4,137.6
				 M207.4,125.6c-2.7,0-5.4,0.9-7.6,2.7c-3.6,2.9-5.2,7.7-4.1,12.2c0.1,0.3,2,8,5.4,16.1c5.7,13.4,12.5,21.1,21,23.7
				c2.1,0.7,4.3,1,6.4,1c8.6,0,15.6-5.5,17.5-13.6c0.9-4.1,1.3-12.5-7.3-22.4c-5.8-6.7-14.6-12.9-26.1-18.5
				C210.9,126,209.2,125.6,207.4,125.6L207.4,125.6z"/>
			<path fill="#009FE3" d="M228.5,172.3c-1.2,0-2.5-0.2-3.8-0.6c-12.8-4-19.6-30.4-20.3-33.4c-0.3-1.1,0.1-2.3,1-3.1
				c0.5-0.4,1.2-0.7,1.9-0.7c0.4,0,0.9,0.1,1.3,0.3c23.6,11.4,30.2,23.4,28.5,30.8C236.3,169.7,232.9,172.3,228.5,172.3L228.5,172.3
				z"/>
			<path d="M207.4,137.6c32.2,15.5,30.5,31.7,21.1,31.7c-0.9,0-1.9-0.1-2.9-0.5C214.1,165.3,207.4,137.6,207.4,137.6 M207.4,131.6
				c-1.4,0-2.7,0.5-3.8,1.3c-1.8,1.5-2.6,3.8-2.1,6.1c0.1,0.3,1.8,7.5,5.1,15.2c4.9,11.6,10.6,18.3,17.2,20.4
				c1.6,0.5,3.1,0.7,4.6,0.7c5.8,0,10.3-3.5,11.6-8.9c0.9-4.2,1.6-18.9-30.1-34.2C209.2,131.8,208.3,131.6,207.4,131.6L207.4,131.6z
				"/>
		</g>
		<g>
			<path fill="#FFFFFF" d="M175.4,28.4c0,0,1.1,10.5-3.1,12.4c16.6,0,15.8,19.6,15.8,19.6V186c0,0,0,5.6,0,12h0v17.5
				c-0.2,8.9-5.1,12.9-12,12.9c0,0,0,0,0,0c0,0,0,0,0,0c-6,0-11.5-3.7-12-12.9v-4.2c-0.1-0.8-0.2-1.6-0.3-2.5H90.3
				c0,0.1,0,0.2,0,0.3v6.4c-0.2,8.9-5.1,12.9-12,12.9c0,0,0,0,0,0c0,0,0,0,0,0c-6,0-11.5-3.7-12-12.9v-17.8h0V60.3
				c0,0-1.2-19.2,16.8-19.6c22.9,0,63.5,0,63.5,0s13.5-4.9,18.8-12.4c0,0,1.8,7.1-3.8,12.4C161.6,40.8,172,35.8,175.4,28.4
				 M175.4,16.3c-1.8,0-3.5,0.4-5,1.1c-0.9-0.4-1.9-0.7-2.8-0.9c-0.7-0.1-1.4-0.2-2.2-0.2c-3.9,0-7.6,1.9-9.9,5.1
				c-1.7,2.4-7.1,5.5-11.2,7.3H83.1c-0.1,0-0.2,0-0.3,0c-10.6,0.2-17.1,4.9-20.7,8.8c-7.9,8.6-8,20.2-7.9,23.1V197
				c0,0.2,0,0.4,0,0.7v17.8c0,0.2,0,0.4,0,0.6c0.5,9.3,4.4,14.9,7.6,18c4.3,4.1,10.1,6.3,16.4,6.3c12.4,0,21.3-7.7,23.5-19.6h50.9
				c1.3,6.5,4.4,10.7,7,13.3c4.3,4.1,10.1,6.3,16.4,6.3c14,0,23.7-9.9,24.1-24.6c0-0.1,0-0.2,0-0.3V198c0-0.1,0-0.3,0-0.4V186V60.6
				c0.1-3.1-0.1-15.3-8.5-24c-1.2-1.3-2.6-2.4-4.1-3.4c0.1-2.4,0-4.5-0.2-6c-0.6-5.4-4.7-9.8-10-10.6
				C176.7,16.4,176.1,16.3,175.4,16.3L175.4,16.3z"/>
			<path fill="#009FE3" d="M176.1,228.4v3c-6.9,0-14.4-4.1-15-15.7c0,0,0-3.8,0-3.8H93.3v3.7c-0.2,10-5.9,15.9-15,15.9
				c-6.9,0-14.4-4.1-15-15.7c0,0,0-0.1,0-0.1v-17.8c0-0.1,0-0.2,0-0.3v-137C63.2,59.2,63,50,68.8,43.6c3.5-3.8,8.2-5.7,14.2-5.9
				l63,0c2.3-0.9,12.8-5.2,16.9-11.1c0.6-0.8,1.5-1.3,2.5-1.3c0.2,0,0.4,0,0.5,0c1.2,0.2,2.1,1.1,2.4,2.2c0,0.2,0.5,2.1,0.3,4.7
				c1.7-1.5,3.2-3.3,4.1-5.2c0.5-1.1,1.6-1.8,2.7-1.8c0.2,0,0.3,0,0.5,0c1.3,0.2,2.4,1.3,2.5,2.7c0.2,1.9,0.5,6.6-0.8,10.4
				c2.9,0.8,5.4,2.3,7.5,4.4c6.1,6.4,6,16.5,6,17.6v137.4c0,0.1,0,0.1,0,0.2v17.5c-0.2,10-5.9,15.9-15,15.9
				C176.1,231.4,176.1,228.4,176.1,228.4z"/>
			<path d="M175.4,28.4c0,0,1.1,10.5-3.1,12.4c16.6,0,15.8,19.6,15.8,19.6V186c0,0,0,5.6,0,12h0v17.5c-0.2,8.9-5.1,12.9-12,12.9
				c0,0,0,0,0,0c0,0,0,0,0,0c-6,0-11.5-3.7-12-12.9v-4.2c-0.1-0.8-0.2-1.6-0.3-2.5H90.3c0,0.1,0,0.2,0,0.3v6.4
				c-0.2,8.9-5.1,12.9-12,12.9c0,0,0,0,0,0c0,0,0,0,0,0c-6,0-11.5-3.7-12-12.9v-17.8h0V60.3c0,0-1.2-19.2,16.8-19.6
				c22.9,0,63.5,0,63.5,0s13.5-4.9,18.8-12.4c0,0,1.8,7.1-3.8,12.4C161.6,40.8,172,35.8,175.4,28.4 M175.4,22.3c-2,0-3.9,1-5,2.7
				c-0.9-1.3-2.3-2.3-3.9-2.6c-0.4-0.1-0.7-0.1-1.1-0.1c-1.9,0-3.8,0.9-4.9,2.6c-2.8,4-10.3,8-15,9.8H83.1c0,0-0.1,0-0.1,0
				c-6.7,0.1-12.4,2.5-16.4,6.8c-6.6,7.1-6.4,17-6.4,18.9v136.8c0,0.2,0,0.3,0,0.5v17.8c0,0.1,0,0.2,0,0.3
				c0.7,13.7,10.1,18.6,18,18.6c10.9,0,17.8-7.2,18-18.7c0,0,0-0.1,0-0.1v-0.7h61.8v0.7c0,0.1,0,0.2,0,0.3
				c0.7,13.7,10.1,18.6,18,18.6c10.9,0,17.8-7.2,18-18.7c0,0,0-0.1,0-0.1V198c0-0.1,0-0.2,0-0.3V186V60.5c0.1-1.8,0.1-12.5-6.8-19.7
				c-1.7-1.8-3.8-3.2-6.1-4.2c0.6-3.4,0.4-6.7,0.2-8.8c-0.3-2.7-2.3-4.9-5-5.3C176.1,22.4,175.8,22.3,175.4,22.3L175.4,22.3z"/>
		</g>
		<path fill="none" stroke="#000000" stroke-width="4.5123" stroke-linecap="round" d="M151,143.3c-19.6,19.6-47.6,4.5-47.6,4.5"/>
		<g>
			<path fill="#FFFFFF" d="M114.3,107.4c0,7.7-6.2,13.9-13.9,13.9l0,0c-7.7,0-13.9-6.2-13.9-13.9l0,0c0-7.7,6.2-13.9,13.9-13.9l0,0
				C108,93.5,114.3,99.7,114.3,107.4L114.3,107.4z"/>
			<circle cx="100.4" cy="107.4" r="6.4"/>
			<path fill="#FFFFFF" d="M167.9,107.4c0,7.7-6.2,13.9-13.9,13.9l0,0c-7.7,0-13.9-6.2-13.9-13.9l0,0c0-7.7,6.2-13.9,13.9-13.9l0,0
				C161.7,93.5,167.9,99.7,167.9,107.4L167.9,107.4z"/>
			<circle cx="154" cy="107.4" r="6.4"/>
			
				<ellipse transform="matrix(-0.9059 -0.4235 0.4235 -0.9059 142.6244 243.1564)" fill="#FFFFFF" cx="98.3" cy="105.7" rx="1.6" ry="2.5"/>
			
				<ellipse transform="matrix(-0.9059 -0.4235 0.4235 -0.9059 244.8985 265.8832)" fill="#FFFFFF" cx="152" cy="105.7" rx="1.6" ry="2.5"/>
		</g>
		<path fill="#83D0F5" d="M98.4,47c-13.5-0.2-25.6-0.2-25.6,23.3C79.4,55.7,87.4,50,98.4,47z"/>
		<path fill="#83D0F5" d="M127.2,170.4c-18.3,0-33.2,14.4-33.2,32.3h66.4C160.4,184.9,145.5,170.4,127.2,170.4z"/>
	</g>
</g>
</svg>
